<svg xmlns="http://www.w3.org/2000/svg" version="1.1" viewBox="0 0 2048 2048" width="2048" height="2048">

<circle cx="1024" cy="1080" r="820" fill="#E6D5B8" stroke="#7B5E3D" stroke-width="72"></circle>

<path transform="translate(1355,314)" d="m0 0h20l17 2 19 5 16 6 17 9 14 10 14 13 11 14 9 15 7 16 7 24 2 14v21l-3 20-5 17-8 16-9 13-11 12-13 10-16 9-14 6-6 2h-5l19 19 9 11 12 16 11 15 13 21 14 28 6 15 7 22 3 14 6-11 9-11 9-10 14-12 20-12 27-14 33-15 16-8 6-1 6 4 2 4 1 6v16l-1 22-4 28-6 21-7 16-9 15-9 11-6 7 25 3 29 6 45 14 9 3 3 3v8l-12 16-12 14-10 11-11 9-13 10-16 8-16 5-10 2-10 1h-13l-19-3-36-12-2 7-8 10-9 6-7 3-8 1v25l32-10 29-6 21-3 13-1h50l19 3 16 5 11 7 7 7 5 11 1 13-3 15-9 21-12 23-17 28-28 42-16 21-11 13-9 11-9 10-7 8-16 16-8 7-14 11-11 7 2 10 9 31 8 19 8 13 12 14 11 12 2 4v7l-4 6-9 6-12 4-5 1h-26l-16-4-16-8-10-6-1 20-5 24-6 16-8 15-8 11-11 13-11 11-14 10-14 7-9 3-11 1-7-3-3-5v-17l1-22-9 10-7 7-12 9-13 8-10 5h-2l5 6 8 7 27 27 7 8 10 11 7 9 11 14 14 18 15 23 15 25 12 22 9 20 1 3v11l-7 6-4 1 9 29 11 30 4 14v8l-8 7-14 9-16 10-21 12-22 12-15 8-11 5-17 8-6 3h-2v20l-3 18-6 18-8 15-11 12-10 7-11 5-4 1h-15l-11-4-4-2-6 7-10 7-12 4h-17l-13-5-5-3-2 5-7 7-10 6-7 2h-22l-11-4-10-7-7-6-9-13-6-14-3-10-41 4-33 2h-69l-33-2-36-4-61-10-26-5-8 16-8 11-11 11-13 8-9 3-5 1h-13l-13-4-10-7-10-10-6 2-11 4h-15l-10-3-10-6-8-7-6-9v-2h-14l-11-4-8-6-9-9-7-14-4-16-2-15v-15l3-18-5-1-6-3v-2l-4-1-12-7-1-1 1-10 10-30 11-26 20-40-6-8-2-3v-10l7-13 17-25 10-14 10-13 11-14 11-13 9-11 11-12 7-8 15-16 8-8 8-7 11-10 11-9 3-3-18-8-16-9-12-9-3 14-5 6h-11l-12-5-12-8-11-10-11-14-8-13-11-23-6-18-5-20v-2l-2 1-7 34-4 10-8 8-10 4h-7l-10-3-9-6-7-7-7-11-7-15-9-27-4-21-2-13v-31l3-22 2-14-13 8-12 5-16 4-11-1-8-4-4-5-1-3v-15l4-16 8-17 8-14 2-5-12-11-8-7-9-10-9-11-11-13-14-20-10-15-16-28-12-23-12-27-10-27-5-22v-17l4-12 7-10 10-6 11-4 8-2 10-1h15l27 4 33 8 26 8 20 8 1-12 5-15 8-18 8-14 9-12-2-6-4-10-1-5v-26l3-13 8-17 9-13 13-14 4-8 11-25 13-30 11-22 10-15 1-4-2-9v-22l4-16 8-16 8-10 5-7-7-10-6-13-2-11v-13l4-19 7-13 8-9 4-2h7l8 4 8 8 13 10 11 5 5 1h17l16-5 17-8 19-12 11-8 17-11 15-9 23-12 19-8 26-8 23-5 27-4 15-1h45l26 2 27 4 40 9 27 8 50 17 43 16 16 7-3-13v-23l3-17 6-17 8-16 10-13 12-12 14-10 19-10 20-6z" fill="#334D43"></path>
<path transform="translate(1355,314)" d="m0 0h20l17 2 19 5 16 6 17 9 14 10 14 13 11 14 9 15 7 16 7 24 2 14v21l-3 20-5 17-8 16-9 13-11 12-13 10-16 9-14 6-6 2h-5l19 19 9 11 12 16 11 15 13 21 14 28 6 15 7 22 3 14 6-11 9-11 9-10 14-12 20-12 27-14 33-15 16-8 6-1 6 4 2 4 1 6v16l-1 22-4 28-6 21-7 16-9 15-9 11-6 7 25 3 29 6 45 14 9 3 3 3v8l-12 16-12 14-10 11-11 9-13 10-16 8-16 5-10 2-10 1h-13l-19-3-36-12-2 7-8 10-9 6-7 3-8 1v26l-5 3-22 8-23 12-7 3-11 7-5 2-1-13-3-7-2-1h-6l-3 5-1 5v46l4 35 6 31 8 38 4 36 1 16v21l-2 26-5 25-9 25-11 23-10 17-12 17-9 10h-2l-1-21-12-62-7-31-2-15v-24l3-28 4-28v-8l-2-4-2-1h-7l-5 8-15 37-7 13-5 6-4 1-3-3-2-5-1-9v-12l3-19 7-24 7-20 12-29 11-33 4-19 2-25v-14l-2-11-8-5-23-12-16-11-14-12-11-11-9-11-12-16-11-17-10-17-8-16-1-3-17-7-6-1-3-3-15-6-36-12-26-8-45-12-17-4h-4l2 37 4 34 5 27 4 19v7l-4 10-8 7-9 3h-8l-16-4-15-8-11-8-10-9-8-8-7-10 1 10 10 38 4 21v12l-3 10-6 7-8 4-4 1h-14l-14-4-16-8-13-8-16-12-15-14-11-12-10-13-17-26-11-20-8-21-5-17-6-33-2-18v-12l-4 1-20 2-24 4-1 2h-8l-15 3-4 7-12 16-9 11-19 19-8 7-10 9-18 13-18 12-15 9-18 10-23 11-22 9-5 4-1 6 3 4h11l21-7h2l-1 8-5 27-3 22-2 22v35l1 17v23l-5 20-8 27-6 26-2 17v44l2 19 4 20 8 24 8 17 1 3 4 2 4 5 7 4 3 4v3h2l2 4 5 5 8 11v2h2l2 3v3h2l4 10 11 10 14 11 11 8 21 13 27 15 23 10 24 9 23 8v3l-15 9-8 5-10 7-6 4-10-3-21-11-11-8-4-3-3 14-5 6h-11l-12-5-12-8-11-10-11-14-8-13-11-23-6-18-5-20v-2l-2 1-7 34-4 10-8 8-10 4h-7l-10-3-9-6-7-7-7-11-7-15-9-27-4-21-2-13v-31l3-22 2-14-13 8-12 5-16 4-11-1-8-4-4-5-1-3v-15l4-16 8-17 8-14 2-5-12-11-8-7-9-10-9-11-11-13-14-20-10-15-16-28-12-23-12-27-10-27-5-22v-17l4-12 7-10 10-6 11-4 8-2 10-1h15l27 4 33 8 26 8 20 8 1-12 5-15 8-18 8-14 9-12-2-6-4-10-1-5v-26l3-13 8-17 9-13 13-14 4-8 11-25 13-30 11-22 10-15 1-4-2-9v-22l4-16 8-16 8-10 5-7-7-10-6-13-2-11v-13l4-19 7-13 8-9 4-2h7l8 4 8 8 13 10 11 5 5 1h17l16-5 17-8 19-12 11-8 17-11 15-9 23-12 19-8 26-8 23-5 27-4 15-1h45l26 2 27 4 40 9 27 8 50 17 43 16 16 7-3-13v-23l3-17 6-17 8-16 10-13 12-12 14-10 19-10 20-6z" fill="#523013"></path>
<path transform="translate(827,744)" d="m0 0h4l3 30 6 33 8 26 9 20 10 17 17 25 11 13 12 13 11 10 17 12 15 9 17 7 8 2h14l9-3 6-5 4-8 1-5v-12l-6-29-9-34v-7l5 5 7 9 11 11 14 10 15 8 16 4h8l9-3 7-6 4-10v-7l-8-39-4-31-2-23-1-25 9 1 44 11 34 10 37 12 20 8 4 4 7 19 9 19 12 20 10 14 8 11 9 11 12 13 12 12 15 11 18 11 16 8 1 1v29l-3 17-6 20-9 25-11 26-11 35-4 18-1 6v32l4 11 7 9 6 3 8 1 8-3 7-6 4-6h1l1 30 4 25 7 30 2 8-1 5-9 10-7 8-11 12-20 18-20 15-20 13-16 9-19 10-34 14-36 12-38 10-36 7-17 3-4 3-1 5 4 6 2 2h11l33-6-5 5-13 10-13 8-16 8-25 10-26 9-10 6-6 8-6 17-7 24-10 37-2 2-12-59-7-28-4-6-9-6-18-10-13-10-10-9-7-9 2-1 26 3 29 2 6-3 2-4-1-7-4-3-44-4-28-4-38-7-40-10-32-10-28-11-34-17-20-12-18-13-17-14-22-22-11-14-10-15-10-19-7-19-6-24-2-14-1-13v-17l2-26 4-22 9-31 7-24 1-16-2-28v-29l2-31 5-32 6-28 3-6 9-6 18-10 22-14 16-12 14-11 10-9 8-7 14-14 18-22 9-14 8-15 12-3 19-3z" fill="#849B49"></path>
<path transform="translate(1247,1384)" d="m0 0h6l26 16 18 12 18 13 11 9 11 10 8 7 22 22 7 8 10 11 9 11 11 13 10 14 12 17 14 21 9 16 8 15 10 21-4 4-20 9-14 5h-5l-14-15-12-10-9-4-7 1-4 4-2 7-2 35-23 8-26 11-32 15-11 7h-5l-2-5-6-31-8-27-14-49-4-4-5-1-5 2-1 2v11l12 41 10 38 4 19v4l-24 4-24 7-16 8-15 9-14 11-7 7-12 16-9 16-7 17-3 14-1 9v30l2 11-3 2-38 4-33 2h-69l-33-2-36-4-61-10-25-5 1-8 3-14 1-7v-23l-4-18-7-20-8-15-10-14-6-7-8-7-14-10-19-9-6-3 5-25 11-40 12-37 6-15v-8l-1-3-3-1h-7l-4 4-10 28-13 38-7 28-3 16-1 2-5-1-25-12-18-8-7-4-1-23-4-8-2-1h-7l-15 7h-6l-9-6-2-3 11-18 10-16 27-36 14-17 11-13 9-10 7-8 30-30 11-9 10-9 20-14 32-21 11 1 27 6 15 3 5 5 7 10 8 10 12 12 17 12 18 10 5 8 7 32 12 56 4 12 4 6 4 2h7l5-3 5-12 7-24 11-40 9-26 5-6 42-14 25-12 15-9 12-9 12-11 9-9 7-8 9-4 27-8 32-11z" fill="#8B5B33"></path>
<path transform="translate(924,526)" d="m0 0h53l42 4 55 8 38 9 33 9 32 11 32 13 24 11 28 14 24 14 16 10 19 14 18 14 14 12 10 9 8 7 17 16 12 13 14 15 9 11 14 18 13 18 13 21 12 21 7 14 12 36 3 15 2 25-3-3-12-20-10-15-13-16-8-10-15-16-19-19-11-9-11-10-11-9-16-12-20-14-24-15-24-14-27-14-32-14-30-11-8 1-3 4v6l5 5 31 12 25 11 25 12 24 14 23 14 17 12 19 14 13 11 11 9 13 12 16 15 16 17 22 28 11 17 10 18 13 24-2 2-16 7-9-11-14-15-15-14-11-9-11-10-19-14-14-10-38-24-24-14-28-15-23-11-28-12-37-14-48-16-37-10-28-7-55-11-37-6-35-4-50-3h-35l-34 2-38 4-36 6-44 10-26 8-32 11-35 16-17 9-15 9-19 14-4 1-2-3v-14l3-16 5-12 7-12 4-5 11-9 16-10 27-14 23-10 28-10 33-10 29-7 36-7 4-2 1-2v-7l-2-4-2-1h-8l-45 9-34 9-36 12-32 13-16 8-9 4 2-6 9-20 16-33 7-12 13-16 9-10 16-16 17-12 22-12 27-13 26-10 32-10 26-6 39-6 27-3z" fill="#8C5C34"></path>
<path transform="translate(754,756)" d="m0 0h5l-4 7-12 16-9 11-19 19-8 7-10 9-18 13-18 12-15 9-18 10-23 11-22 9-5 4-1 6 3 4h11l21-7h2l-1 8-5 27-3 22-2 22v35l1 17v23l-5 20-8 27-6 26-2 17v44l2 19 4 20 8 24 8 17 1 3 4 2 4 5 7 4 3 4v3h2l2 4 5 5 8 11v2h2l2 3v3h2l4 10 11 10 14 11 11 8 21 13 27 15 23 10 24 9 23 8v3l-15 9-8 5-10 7-6 4-10-3-21-11-11-8-4-3-3 14-5 6h-11l-12-5-12-8-11-10-11-14-8-13-11-23-6-18-5-20v-2l-2 1-7 34-4 10-8 8-10 4h-7l-10-3-9-6-7-7-7-11-7-15-9-27-4-21-2-13v-31l3-22 2-14-13 8-12 5-16 4-11-1-8-4-4-5-1-3v-15l4-16 8-17 8-14 2-5-12-11-8-7-9-10-9-11-11-13-14-20-10-15-16-28-12-23-12-27-10-27-5-22v-17l4-12 7-10 10-6 11-4 8-2 10-1h15l27 4 33 8 26 8 20 8 1-12 5-15 8-18 8-14 9-12v-4l6-3 7-6h6l9 4 6-2 15-11 20-12 25-12 27-11 20-7 23-7z" fill="#334E43"></path>
<path transform="translate(774,752)" d="m0 0h8l-1 5-9 16-13 17-9 10-7 8-15 15-8 7-16 13-17 12-15 10-15 9-19 11-4 9-8 42-2 15-2 31v29l2 28-1 16-9 31-7 24-4 22-2 26v17l2 20 4 20 6 20 8 18 9 16 10 14 12 14 20 20 14 11 18 13 24 14 30 15 23 9 27 9 37 10 34 7 37 6 28 3 24 2 5 4 1 7-4 6-7 2-38-3-16-2 8 10 10 9 13 9 16 9 9 6 4 5 4 13 9 41 6 31 1 2 15-55 7-21 6-9 8-6 15-6 26-9 23-10 14-8 14-10 9-7v-2l11-3 20-3-6 7-7 8-12 12-13 10-18 11-25 12-42 14-4 5-12 36-12 45-6 17-4 6-4 2h-7l-5-3-5-8-5-19-15-71-3-10-3-5-18-10-14-10-10-9-9-9-9-13-5-7-11-3-29-6-9-2h-6l-42 28-12 9-15 13-12 11-27 27-7 8-12 14-11 14-12 15-14 19-10 14-10 17-7 11 5 5 5 3h6l15-7h7l5 5 2 5 1 23 21 10 18 8 15 7 4-23 7-26 17-50 6-15 4-3h7l5 5v8l-9 24-11 35-9 33-5 25 16 7 11 6 12 9 10 9 10 13 8 13 7 16 6 19 2 11v23l-3 17-3 11-10 19-8 10-10 10-13 8-9 3-5 1h-13l-13-4-10-7-10-10-6 2-11 4h-15l-10-3-10-6-8-7-6-9v-2h-14l-11-4-8-6-9-9-7-14-4-16-2-15v-15l3-18-5-1-6-3v-2l-4-1-12-7-1-1 1-10 10-30 11-26 20-40-6-8-2-3v-10l7-13 17-25 10-14 10-13 11-14 11-13 9-11 11-12 7-8 15-16 8-8 8-7 11-10 11-9 3-4 4-4 11-7 3-3 6-3 15-9-3-2-37-13-28-12-24-13-20-12-16-11-13-11-11-9-4-4-2-9h-2l-2-6h-2l-11-16-4-3v-3h-2l-4-7-7-4-5-6-4-4-9-19-7-22-4-20-2-19v-44l3-22 6-25 9-30 3-13v-23l-1-17v-35l4-38 5-28 3-13-23 8h-11l-4-5 1-6 8-6 29-12 22-11 17-10 19-12 18-13 10-8 10-9 13-12 13-13 10-13 10-14 2-3-1-2z" fill="#324D29"></path>
<path transform="translate(984,408)" d="m0 0 38 1 21 2 28 5 38 9 24 7 41 14 19 7 33 13 14 6 20 9 32 16 27 16 24 16 14 10 14 11 13 11 10 9 19 19 7 8 12 14 13 17 12 18 8 13 10 18 8 20 8 23 8 39 1 7v37l-7 2h-6l-13-23-15-23-14-19-13-16-9-11-9-9-7-8-32-32-11-9-14-12-14-11-16-12-23-15-21-12-24-13-27-13-29-12-34-12-33-10-39-10-34-6-38-5-28-3-16-1h-46l-27 2-33 4-36 7-32 8-36 12-29 13-25 13-21 14-12 9-15 14-2 1v-9l4-15 5-10 11-12 10-10 1-2v-6l-11-10-5-8-4-11-1-13 3-14 5-10 2-1 8 7 5 5 10 7 11 5 14 3h11l16-3 16-6 16-8 18-11 11-8 20-13 20-12 19-9 25-9 27-7 21-4 16-2z" fill="#4C6F70"></path>
<path transform="translate(1392,1633)" d="m0 0 8 6 13 12 8 5h8l19-6 8-4h2l12 31 10 31 5 21-11 8-9 5-17 10-11 6-18 10-15 8-11 5-17 8-6 3h-3l-3-9-8-1-4 2-1 2-1 25-3 16-7 17-7 10-6 7-11 7-6 2h-7l-6-5-4-9-1-4v-15l3-18v-9l-3-3-6-1-5 3-4 10-3 15v32l-6 8-6 5-9 3h-8l-8-3-7-8-4-8-3-10-1-7v-13l3-24-2-5-4-2-7 1-3 5-5 23v20l3 15 3 7-1 6-4 6-8 7-5 2h-13l-10-4-9-8-7-11-5-11-4-18v-28l4-17 7-17 9-15 11-13 13-11 13-8 21-10 17-5 12-2h31l17 3 17 5 17 8 12 8 11 9 6 5h7l4-4 1-7-4-6-9-9-17-11-15-8-16-6 4-4 12-7 41-16 17-7 3-4 2-8z" fill="#839B49"></path>
<path transform="translate(1621,933)" d="m0 0h27l24 2 15 4 11 6 4 5 1 2v13l-6 15-13 25-10 17-11 18-18 27-10 14-16 21-13 16-12 14-7 7-7 8-9 9-11 9-13 10-18 11-21 9-13 4-15 3h-10v-38l-1-22-3-26-3-17 1-6 11-13 9-11 21-21 11-9 15-12 17-11 19-10 23-9 30-9 31-6 4-4v-8l-5-4-22 3-23 5-29 9-15 6-21 11-16 10-14 10-11 9-15 14-17 17-8 10h-2l-7-36-3-25v-13l5-6 15-10 18-11 15-8 27-10 40-11 24-4z" fill="#849B49"></path>
<path transform="translate(1245,815)" d="m0 0 10 3 28 13 20 10 23 13 30 18 22 15 16 12 14 11 15 13 13 12 8 7 10 10 6 8-2 4-11 7h-2l-1-13-3-7-2-1h-6l-3 5-1 5v46l4 35 6 31 8 38 4 36 1 16v21l-2 26-5 25-9 25-11 23-10 17-12 17-9 10h-2l-1-21-12-62-7-31-2-15v-24l3-28 4-28v-8l-2-4-2-1h-7l-5 8-15 37-7 13-5 6-4 1-3-3-2-5-1-9v-12l3-19 7-24 7-20 12-29 11-33 4-19 2-25v-14l-2-11-8-5-23-12-16-11-14-12-11-11-9-11-12-16-11-17-10-17-8-16z" fill="#4C6F70"></path>
<path transform="translate(1348,333)" d="m0 0h33l21 5 16 6 16 8 14 10 10 10 11 15 8 14 6 14 4 15 2 15v19l-4 20-6 16-7 11-9 11-12 11-18 11-12 5-14 4h-6l-8-8-11-9-15-12-18-13-15-10-24-14-26-14-11-6-6-8-4-11-2-14v-9l2-15 6-20 9-16 11-12 9-8 10-7 16-8 13-4z" fill="#4D7071"></path>
<path transform="translate(1355,314)" d="m0 0h20l17 2 19 5 16 6 17 9 14 10 14 13 11 14 9 15 7 16 7 24 2 14v21l-3 20-5 17-8 16-9 13-11 12-13 10-16 9-14 6-6 2h-5l19 19 9 11 12 16 11 15 13 21 14 28 6 15 7 22 2 10v8l-7 23-2 10-1 16h-1l-2-23-8-39-10-29-10-22-10-17-14-21-9-12-13-16-11-12-7-8-19-19-11-9-16-13-17-12-21-14-20-12-18-10-32-16-24-10-25-10-26-10-38-13-30-9-42-10-32-5-13-1-38-1-20 1-28 4-25 6-20 6-20 8-19 9-24 15-22 15-17 11-16 8-15 6-12 3-7 1h-11l-14-3-16-8-10-8-6-7-3-1-5 10-3 14 1 13 5 13 7 9 8 7v6l-7 8-12 12-6 9-5 15-1 5v10l-6 5-8 10-3 3-2-9v-22l4-16 8-16 8-10 5-7-7-10-6-13-2-11v-13l4-19 7-13 8-9 4-2h7l8 4 8 8 13 10 11 5 5 1h17l16-5 17-8 19-12 11-8 17-11 15-9 23-12 19-8 26-8 23-5 27-4 15-1h45l26 2 27 4 40 9 27 8 50 17 43 16 16 7-3-13v-23l3-17 6-17 8-16 10-13 12-12 14-10 19-10 20-6zm-7 19-18 4-15 6-10 6-12 9-12 12-9 14-5 12-5 19-1 10v9l3 17 4 10 5 6 28 15 25 14 19 12 19 14 14 11 11 9 12 11 10-1 18-6 16-9 9-7 10-9 11-14 7-14 4-13 3-16v-19l-2-15-5-17-7-16-10-16-11-13-7-7-15-10-16-8-21-7-14-3z" fill="#334E43"></path>
<path transform="translate(1266,1374)" d="m0 0 8 1 23 14 30 21 8 4 3 3v2l3 1v2l3 1 6 8 10 9 26 26 7 8 10 11 7 9 11 14 14 18 15 23 15 25 12 22 9 20 1 3v11l-7 6-4 1 9 29 11 30 4 14v8l-8 7-7 4-3-8-5-20-12-35-7-17v-3l-15 7-14 4h-8l-9-6-7-7-11-9-1-1v23l-3 10-5 4-33 13-25 10-13 8 21 9 14 8 14 10 10 10 2 4-1 7-5 5h-7l-8-7-13-10-16-9-15-6-20-5-8-1h-31l-20 4-16 6-21 11-12 9-10 9-9 12-9 16-6 16-3 14v28l4 18 8 16 7 9 9 6 6 2h13l8-4 7-8 2-4-1-7-3-7-2-12v-20l5-23 3-5 3-2 7 1 4 4 1 6-3 21v13l3 14 4 9 6 8 5 3 4 1h8l9-3 8-7 3-5v-32l4-18 4-8 5-3 7 2 3 3v9l-3 18v15l4 11 4 5 2 1h7l10-4 10-8 7-10 6-12 4-12 2-12 1-25 4-4 6-1 4 2 4 9v20l-3 18-6 18-8 15-11 12-10 7-11 5-4 1h-15l-11-4-4-2-6 7-10 7-12 4h-17l-13-5-5-3-2 5-7 7-10 6-7 2h-22l-11-4-10-7-7-6-9-13-6-14-3-10-1-3-2-10v-30l3-19 4-12 8-17 8-12 11-14 8-8 15-11 19-11 15-6 22-6 13-2h7l-7-31-11-41-9-30v-11l4-4 6-1 6 4 4 11 8 30 10 33 5 24 3 15h5l13-8 34-16 27-11 16-5h2v-20l1-15 3-9 6-4 8 1 10 6 13 12 9 10 8-1 20-8 14-7-4-9-11-23-10-18-12-18-11-16-13-18-11-13-9-11-12-14-16-17-18-18-11-9-9-8-19-14-21-14-26-16-5-1 2-2 4-2 1-2z" fill="#334C28"></path>
<path transform="translate(754,756)" d="m0 0h5l-4 7-12 16-9 11-19 19-8 7-10 9-18 13-18 12-15 9-18 10-23 11-22 9-5 4-1 6 3 4h11l21-7h2l-1 8-5 27-3 22-2 22v35l1 17v23l-5 20-8 27-6 26-2 17v44l2 19 4 20 8 24 8 17 8 13-2 12-8 40-5 19-4 6-1 1h-8l-7-5-9-14-8-18-6-20-3-15-1-10v-33l3-22 7-30 4-17-1-7-4-3h-6l-6 5-8 10-12 12-12 8-11 4-5 1h-9l-1-5 4-14 8-16 10-16 26-36 10-14 12-21 7-14 14-40 4-20v-16l-5-6-8-6-7-11-8-21-3-14-1-16 3-17 5-16 10-21 11-17 10-13 11-11 17-12 19-11 23-11 27-11 20-7 23-7z" fill="#4D7071"></path>
<path transform="translate(868,741)" d="m0 0h65l42 3 38 5 39 7 5 2 1 2 1 31 4 37 7 47 1 11-1 1h-7l-13-4-16-10-13-11-7-8-12-17-11-18-4-4h-9l-3 3-2 6v23l4 23 14 58 1 11-3 3-3 1h-10l-11-4-16-8-14-10-13-11-13-13-11-14-9-12-15-25-8-17-7-19-5-21-4-24-2-22 1-1z" fill="#4D7071"></path>
<path transform="translate(700,1700)" d="m0 0h24l18 4 16 6 14 8 11 9 10 10 8 11 8 16 6 20 2 15v13l-3 16-6 16-7 11-9 10-11 7-9 3-11-1-8-4-5-4-5-8 1-7 5-11 5-18 1-7v-19l-4-4h-7l-3 1-4 25-7 21-7 11-9 7-4 2h-12l-10-5-7-8-2-4 1-9 4-10 3-13 1-8v-20l-3-5-2-1h-7l-3 3-4 30-4 14-4 8-2 2h-8l-7-4-7-7-6-12-4-15-1-8v-11l3-17 4-12 6-11 14-15 10-8 16-8 15-4z" fill="#849C4A"></path>
<path transform="translate(411,894)" d="m0 0h23l32 6 31 8 29 10 10 5 3 23 5 17 7 16 7 9 11 10v7l-3 11-5-5-9-11-9-10-11-11-11-9-10-8-19-12-18-10-19-9-18-6-9-1-5 5v6l4 4 30 13 16 8 19 11 16 12 10 9 19 19 11 14 9 13-1 7-11 24-12 21-11 16-9 12-6 7-4-2-10-9-11-11-9-11-11-13-14-19-11-17-13-23-17-33-9-19-10-30-3-15v-12l4-8 8-5 8-3z" fill="#849C4A"></path>
<path transform="translate(1533,1204)" d="m0 0 2 1 10 35 6 16 7 13 10 14 11 12 2 5-12 3h-19l-11-3-12-5-14-10-10-9-9-7h-6l-2 3v13l1 8v26l-4 20-6 17-8 14-10 13-11 12-11 9-14 8-5 2h-3l2-21 1-13v-24l-3-4-7-1-6 4-10 11-10 13-10 10-12 9-15 9-10 4h-8l-17-12-18-12-20-12-1-3 20-11 21-14 13-10 14-12 11-9 7-7 9-11 3-3h2l2 9 1 28 2 11 4 5 5 2h9l6-4 11-12 15-20 10-15 11-21 10-24 6-18 3-14 23-3 23-6 19-8z" fill="#4D7071"></path>
<path transform="translate(660,1641)" d="m0 0h4l1 13 4 9 23 12 10 5 8 1 19 1 15 4 21 8 9 3 14 9 10 9 5 4 10 13 8 13 7 16 6 19 2 11v23l-3 17-3 11-10 19-8 10-10 10-13 8-9 3-5 1h-13l-13-4-10-7-10-10-6 2-11 4h-15l-10-3-10-6-8-7-6-9v-2h-14l-11-4-8-6-9-9-7-14-4-16-2-15v-15l3-18-5-1-6-3-1-3 7-26 8-22 9-20 12-25 6-9 12 1zm40 59-18 4-12 5-11 7-10 9-10 11-8 16-4 17-1 7v11l3 17 6 15 9 10 7 4h8l4-5 4-11 3-15 3-23 3-3h7l4 3 1 3v20l-3 18-4 11-2 5v6l5 8 7 6 7 3h12l10-6 6-7 6-12 6-21 2-16 1-4 3-1h7l4 4v19l-3 15-5 15-4 8 1 7 6 8 8 5 8 2 10-1 12-6 11-10 9-14 6-16 3-16v-13l-3-19-7-21-8-14-9-11-10-10-13-9-16-8-16-5-11-2z" fill="#324D28"></path>
<path transform="translate(515,1136)" d="m0 0 7 1-18 27-8 16-4 11-1 9h9l13-4 11-6 12-11 10-11 6-7 2-1h6l5 4 1 7-6 25-6 27-2 17v33l3 21 6 21 7 17 6 11 6 8 5 3h8l4-6 7-28 8-40-1-5-4-6 1-2 6 7 7 4 3 4v3h2l2 4 5 5 8 11v2h2l2 3v3h2l4 10 11 10 14 11 11 8 21 13 27 15 23 10 24 9 23 8v3l-15 9-8 5-10 7-6 4-10-3-21-11-11-8-4-3-3 14-5 6h-11l-12-5-12-8-11-10-11-14-8-13-11-23-6-18-5-20v-2l-2 1-7 34-4 10-8 8-10 4h-7l-10-3-9-6-7-7-7-11-7-15-9-27-4-21-2-13v-31l3-22 2-14-13 8-12 5-16 4-11-1-8-4-4-5-1-3v-15l4-16 8-17 8-14 4-4h2l9-1 1 4 4-1-2-4 5-1z" fill="#334E44"></path>
<path transform="translate(1266,1374)" d="m0 0 8 1 23 14 30 21 8 4 3 3v2l3 1v2l3 1 6 8 10 9 26 26 7 8 10 11 7 9 11 14 14 18 15 23 15 25 12 22 9 20 1 3v11l-7 6-4 1 9 29 11 30 4 14v8l-8 7-7 4-3-8-5-20-12-35-7-17v-3l-15 7-14 4h-8l-9-6-7-7-11-9-1-1v23l-3 10-5 4-33 13-25 10-14 9-16-1-10-2-12-1h-20l-23 4-21 6-7 3-3-1 15-6 22-6 13-2h7l-7-31-11-41-9-30v-11l4-4 6-1 6 4 4 11 8 30 10 33 5 24 3 15h5l13-8 34-16 27-11 16-5h2v-20l1-15 3-9 6-4 8 1 10 6 13 12 9 10 8-1 20-8 14-7-4-9-11-23-10-18-12-18-11-16-13-18-11-13-9-11-12-14-16-17-18-18-11-9-9-8-19-14-21-14-26-16-5-1 2-2 4-2 1-2z" fill="#523013"></path>
<path transform="translate(842,743)" d="m0 0h6l1 2 3 28 5 26 6 20 10 23 10 18 12 18 13 16 9 10 9 9 17 13 15 9 14 6 4 1h10l5-3-1-11-15-62-3-19v-23l3-8 3-2h9l7 8 11 18 14 19 11 10 15 10 10 5 8 2h7l-1-11-7-47-4-37-1-33h9l9 3 1 1 2 37 4 34 5 27 4 19v7l-4 10-8 7-9 3h-8l-16-4-15-8-11-8-10-9-8-8-7-10 1 10 10 38 4 21v12l-3 10-6 7-8 4-4 1h-14l-14-4-16-8-13-8-16-12-15-14-11-12-10-13-17-26-11-20-8-21-5-17-6-33-2-18v-10l1-2z" fill="#334E43"></path>
<path transform="translate(808,1408)" d="m0 0 7 1 10 4 5 1-4 4-39 26-12 9-15 13-12 11-27 27-7 8-12 14-11 14-12 15-14 19-10 14-10 17-7 11 5 5 5 3h6l15-7h7l5 5 2 5 1 23 21 10 18 8 15 7 4-23 7-26 17-50 6-15 4-3h7l5 5v8l-9 24-11 35-9 33-5 25 14 6-3 1-21-8-15-4-19-1-8-1-16-8-17-9-4-7-1-3v-13l-7 3-4 3-9-1-3-1-2 5-6 10-13 27-11 28-6 20-3 12h-4l-12-7-1-1 1-10 10-30 11-26 20-40-6-8-2-3v-10l7-13 17-25 10-14 10-13 11-14 11-13 9-11 11-12 7-8 15-16 8-8 8-7 11-10 11-9 3-4 4-4 11-7 3-3 6-3 15-9z" fill="#523013"></path>
<path transform="translate(1613,915)" d="m0 0h50l19 3 16 5 11 7 7 7 5 11 1 13-3 15-9 21-12 23-4 7-4 1-6 11-2 4h-2v2h-2l-2 5-3 6-4 4-2 4-3 1-2 4-6 5h-2v2l-2 1 1 3-4 10-3 3-4 6-3-1v8l-4 1-7 1-1 6-6 8-3 1-2 10-4 2-2 6h-3v2l-9 6-5 4h-2l-2 6-6 4-2 6-5 2-3 5-6 3 1-4-3 3 1 2-4 6-6-1-6 2-4 1-1 2-8 3-12 13-4 2-13 2-11 3-2 2-7 2-4 1-7-1-3-1-2-9v-3h-2v-2l16-2 19-5 20-8 16-9 14-10 13-11 10-9 7-7 7-8 11-12 11-14 12-15 14-19 16-24 11-17 15-26 12-22 7-16 1-3v-13l-4-6-14-7-12-3-24-2h-27l-38 4-24 5-38 11-25 10-20 11-21 14-6 5-1 2v13l4 31 1 10-2-1-2-7-2-11-1-4-5-2-3-2-3-5v-9l4-2 3 5h2l1-18h2l-1-6v-11l2-5 8-6 5-5 9-4 21-11 17-6 9-4 8-3 25-8 29-6 21-3z" fill="#324D28"></path>
<path transform="translate(1641,659)" d="m0 0h2v15l-2 22-4 20-6 16-9 17-10 14-8 9-18 13-12 9-19 12-14 8-4-1-8-6-10-4-1-2v-19l3-22 6-18 8-15 9-12 10-10 13-9 21-12 25-13 21-9z" fill="#8C5C34"></path>
<path transform="translate(1549,1194)" d="m0 0 3 3 10 35 8 20 8 14 13 15 11 12 2 4v7l-4 6-9 6-12 4-5 1h-26l-16-4-16-8-10-6-1 20-5 24-6 16-8 15-8 11-11 13-11 11-14 10-14 7-9 3-11 1-7-3-3-5v-17l1-22-9 10-7 7-12 9-13 8-10 5-4-1-4-5-5-5-5-4 13-4 14-8 11-8 12-11 10-12 9-11 7-6 6-1 5 3 2 3v24l-2 24-2 10 12-5 14-9 13-12 12-15 10-17 6-17 4-20v-26l-1-8v-13l3-4h6l11 9 9 8 15 10 16 6 5 1h19l12-2-6-8-9-10-12-18-7-15-9-29-4-15-4 1 2-5h2l1-3 5-3h8z" fill="#334E44"></path>
<path transform="translate(1223,806)" d="m0 0 10 3 13 5 2 5 9 19 13 21 12 17 11 14 12 13 12 11 14 10 15 9 20 10 3 3 2 11v14l-2 25-4 19-12 36-13 31-10 31-4 18-1 9v12l1 17-1 5-3 1v2l6-1 5 2v2l-4 1 4 1 3-3 2-4 1-6 2-1v2h12l1 4h2l1 5v22l-1 13v4h-2l-2-14-1-29-6 8-6 5-7 2-8-1-7-4-7-9-4-11v-32l4-20 11-36 16-40 10-30 3-14 1-7v-29l-16-8-15-9-14-10-12-11-13-13-9-11-8-10-11-16-9-14-10-18-9-21-2-6z" fill="#334D42"></path>
<path transform="translate(1155,1416)" d="m0 0 2 1-16 17-9 9-13 10-18 11-25 12-42 14-4 5-12 36-12 45-6 17-4 6-4 2h-7l-5-3-5-8-5-19-15-71-3-10-3-5-18-10-14-10-10-9-9-9-9-13-5-7-6-2v-1l16 1 12 2 12 14 9 8 13 9 16 9 9 6 4 5 4 13 9 41 6 31 1 2 15-55 7-21 6-9 8-6 15-6 26-9 23-10 14-8 14-10 9-7v-2l11-3z" fill="#533013"></path>
<path transform="translate(1607,806)" d="m0 0h34l22 4 20 6 22 8-4 6-7 7-7 8-10 10-12 9-14 8-14 5-10 2-17 1-21-3-30-11-2-2-1-18-4-14-1-4 28-16 15-4z" fill="#8C5C34"></path>
<path transform="translate(414,877)" d="m0 0h19l27 4 25 6 33 10 7 4 3 1v2l4 1 2 9 2 6v2l-5-1-25-9-20-6-30-7-22-4h-23l-12 3-9 5-4 8v12l4 19 9 26 14 29 15 29 13 22 11 16 13 17 9 11 12 14 14 14 5 4 6-2-2 4-6 3-6 2-4 3h-3v-2l-4-1-2-3-1-3-7-2-6-9-7-6-2-7-8-2-13-17-13-19-10-16-16-28-11-22-12-29-7-19-5-22v-17l3-1 1-7 3-6h2l2-6 12-7 15-5z" fill="#324D29"></path>
<path transform="translate(1363,1273)" d="m0 0 2 1-1 4 3 11-1 10-9 11-9 9-11 9-14 12-18 13-21 13-11 6h-2l1 3-10 1-4 2h-3l-2 4-19 9-30 11-28 9-25 7-18 3-21 6-18 3h-11l-6-7-1-4 3-5 7-3 35-6 38-9 36-11 24-9 28-12 23-12 19-12 17-12 14-11 13-12 12-11 7-8 9-10z" fill="#324D28"></path>
<path transform="translate(774,752)" d="m0 0h8l-1 5-9 16-13 17-9 10-7 8-15 15-8 7-16 13-17 12-15 10-15 9-16 9h-3-2l-2 5-4 4-14 4-2 2v-2l-23 8h-11l-4-5 1-6 8-6 29-12 22-11 17-10 19-12 18-13 10-8 10-9 13-12 13-13 10-13 10-14 2-3-1-2z" fill="#334D43"></path>

<path transform="translate(1647,965)" d="m0 0 5 1 4 4v8l-5 5-31 6-30 9-25 10-22 12-16 11-13 11-11 9-20 20-18 22-3-3-4-19 10-13 25-25 8-7 17-13 17-11 18-10 17-8 31-10 21-5z" fill="#324D28"></path>

<path transform="translate(643,1316)" d="m0 0 7 6 12 11 14 11 11 8 21 13 27 15 23 10 24 9 23 8v3l-15 9-1 1h-10l-17-6-17-9-14-10-13-9-4-2h-6l-3 2-1 3v21l-6-1-10-7-7-6-11-14-10-17-9-20-7-23z" fill="#4C6F70"></path>
<path transform="translate(660,1641)" d="m0 0h4l1 13 4 9 23 12 10 5v1l-23 5-16 6-11 6-10 8-8 7-11 15-7 14-4 12-6-1-6-3-1-3 7-26 8-22 9-20 12-25 6-9 12 1z" fill="#839B49"></path>

<path transform="translate(428,923)" d="m0 0 9 1 18 6 27 13 20 12 14 10 11 9 13 12 11 11 13 17v4l-6 15 1 8h-2l-4-8-10-13-11-13-21-21-16-12-15-9-16-9-30-13-10-5-2-3v-6l4-5z" fill="#324D28"></path>
<path transform="translate(625,1633)" d="m0 0 12 8v2l4 2-2 5-6 10-13 27-11 28-6 20-3 12h-4l-12-7-1-1 1-10 10-30 11-26z" fill="#324D28"></path>
<path transform="translate(1505,820)" d="m0 0h8l10 4 7 6 6 10 2 6 1 7v11l-3 10-6 10-7 6-4 2h-3l-6-31-6-20-7-16v-3z" fill="#8C5C34"></path>
<path transform="translate(1691,1026)" d="m0 0 2 2-13 22-27 40-16 21-11 13-9 11-9 10-7 8-16 16-8 7-14 11-12 8-4 1h-7l-5 3-1 2h-2l-2 5-10 5-18 6-19 4h-16l-2-6 1-10 1-20v-26l-2-21-1-16-1-8 1-3h2l3 21 1 10 1 22v20l-1 20h2l2 10v2l10 1 4-1 8-3 7-3 8-2 10-1 6-4 10-11 9-4 6-3 3 1 1-2 6 2 2-4v-3l2-4h2v3l5-4 2-1 2-4 4-1 2-6 5-3 3-6 8-6 6-4h2v-2h3v-4h2v-2l3-2 2-10 7-6 3-5 1-4 7-2h3v-8l2-1v2l5-5 1-3 3-3 4-10-2-1 3-1v-2h2l1-2 7-7h2l2-5 5-5 5-10h2v-2h2l1-4 5-10z" fill="#364E3D"></path>
<path transform="translate(1474,1640)" d="m0 0 3 1 12 36 8 22 3 11v8l-8 7-7 4-3-8-5-20-12-35-7-17 1-4z" fill="#324D28"></path>
<path transform="translate(1433,949)" d="m0 0h6l5 5 1 4v13l10-6 2 1-9 7-1 9v12h-2v18h-4l-3-4-2 1v9l3 5-4 2-4-3v-5h-2l-1-11v-46l3-9z" fill="#334D43"></path>
<path transform="translate(1310,1116)" d="m0 0h1l-1 24 2 8v1l11 4 1 2v7l2 1v10l-4 2v2l6-1 5 2v2l-4 1 4 1 3-3 2-4 1-6 2-1v2h12l1 4h2l1 5v22l-1 13v4h-2l-2-14-1-29-6 8-6 5-7 2-8-1-7-4-7-9-4-11v-32l3-16z" fill="#344A35"></path>
<path transform="translate(416,875)" d="m0 0h15l27 4 33 8 26 8 18 7 2 2 3-3 4-1 1 5-2 1 1 7-3 5-2 1v7l1 3-1 2h3l2 7v11l1 3 1 9 2 4v3h2l3 7v4h2l4 7 4 2 3 5 3 3h-3l-8-7-6-7-7-14-6-18-3-17-2-18-1-1-1-7-2-1v-2l-6-2-6-4-33-10-25-6-27-4h-19l-13 2-16 6-7 4-3 6h-2l-3 9-1 4h-2l2-9 7-11 9-6 9-4 12-3z" fill="#334A34"></path>
<path transform="translate(1464,1111)" d="m0 0h2l3 21 1 10 1 22v20l-1 20h2l2 10v2l10 1 4-1 8-3 7-3 8-2 10-1 6-4 10-11 9-4 6-3 3 1 1-2 4 4-5 4-5 3-3 1h-7l-5 3-1 2h-2l-2 5-10 5-18 6-19 4h-16l-2-6 1-10 1-20v-26l-2-21-1-16-1-8z" fill="#344A39"></path>
<path transform="translate(1366,1792)" d="m0 0h2v20l-3 18-6 18-8 15-11 12-10 7-11 5-4 1h-15l-11-4-1-2 5 1 7 2h15l12-4 10-7 5-7v-3l1-4h2l2-6 4-2 5-12 1-10 2-2-4-5 1-4 1-13 4-2v-6l4-2z" fill="#344B39"></path>
<path transform="translate(454,1098)" d="m0 0 4 2 3 1 4 8 7 6 5 8 7 2 2 5 4 2v2l6-3 2-2 10-3 2-4 3-5 10-14h2l-2 5-4 5v11l-3 2 1 3 4 1 1 5v2l-7-1v3h-2l-1 2 1 4-2 1-3-1-2-3-8 1-2 1-5-6-8-7-10-9-7-8-12-14z" fill="#344A37"></path>
<path transform="translate(625,1633)" d="m0 0 5 4-1 7-4 6-7 2v2h-2l-1 6-8 16 1 7-1 7h-2l1 3h-2l-2 6-1 2 3 5v2l-3 1-4-4-3 1-3 10-2 5-2 9 1 8h3l6 7-1 2-12-7-1-1 1-10 10-30 11-26z" fill="#334A36"></path>
<path transform="translate(611,1758)" d="m0 0h1v11l-1 15 2 4 1 7h3l1-2-3-1h4l1-2 1 3 3-1 1 4-5 8-1 10 1 11 6 9 5 4v2l6 2 3 3 7 3 13 1v2h-11l-11-4-8-6-9-9-7-14-4-16-2-15v-15z" fill="#334A36"></path>
<path transform="translate(1476,1641)" d="m0 0 2 3 11 33 8 22 3 11v8l-8 7-3-1 3-1 2-4 2-6-4-6-5-1-4-2v-6h2v-3h2v-5-4l-1-5-3-8-2-7-1-5-2-2-1-7-2-10z" fill="#344A37"></path>
<path transform="translate(1455,965)" d="m0 0 2 1-9 7-1 9v12h-2v18h-4l-3-4-2 1v9l3 5-4 2-4-3-1-10 1-3h2l-2-5v-6l8-3 2-5-1-5 3-12 4-1v-2z" fill="#334A38"></path>
<path transform="translate(1691,1026)" d="m0 0 2 2-13 22-27 40-13 17-2 1v-10l2-1v2l5-5 1-3 3-3 4-10-2-1 3-1v-2h2l1-2 7-7h2l2-5 5-5 5-10h2v-2h2l1-4 5-10z" fill="#374E3E"></path>
<path transform="translate(821,1840)" d="m0 0h8l-1 5-8 16-8 10-10 10-13 8-9 3-5 1h-13l-13-4-8-5v-2l4 1v2l11 3h22l7-1h3v-2l7-3 8-6 6-5 1-3h2v-2h2l2-5 2-3v-5l3-6v-4z" fill="#334A36"></path>
<path transform="translate(1613,915)" d="m0 0h50l19 3 16 5 11 7 7 7 5 11 1 13-2 11-4-1v-10l-1-6 1-1 2-9h-2l-2-4v-3h-2v-2h-2l-2-4-12-7-8-3-20-4-20-1h-17l-25 1v-2z" fill="#334A35"></path>
<path transform="translate(536,923)" d="m0 0 4 5-1 3h3l2 7v11l1 3 1 9 2 4v3h2l3 7v4h2l4 7 4 2 3 5 3 3h-3l-8-7-6-7-7-14-6-18-3-17z" fill="#354C34"></path>
<path transform="translate(1555,1184)" d="m0 0 4 2 1 3-10 6-3 1h-7l-5 3-1 2h-2l-2 5-10 5-8 3-15-1 2-2 12-3 10-1 6-4 10-11 9-4 6-3 3 1z" fill="#344B39"></path>
<path transform="translate(803,1721)" d="m0 0 5 4 12 18 7 15 7 22 2 11v23l-3 17-3 11-2-4 4-20 1-19-2-17-5-17-7-18-8-14-8-10z" fill="#533013"></path>
<path transform="translate(554,1167)" d="m0 0 2 2v3h2l3 6-1 5-3 1 2 9-6 2-1-4v-2l-1-3-6-2-1-2 1-1v-5-3l5-4h4z" fill="#334A38"></path>
<path transform="translate(517,896)" d="m0 0 10 3 9 4h2l2-2 4-1 1 5-2 1 1 7-3 5-2 1v6h-2v-2l-2-1-1-7-1-1-1-7-2-1v-2l-6-2-7-5z" fill="#344A37"></path>
<path transform="translate(1464,1111)" d="m0 0h2l3 21 1 10 1 22v20l-1 8h-1v-42h-2l-2-9v-10l-2-17z" fill="#384B30"></path>
<path transform="translate(1716,976)" d="m0 0h2l-1 5-8 18-13 24-4 1-1-2 1-3h2l1-8 3-3 4-2 1-7 3-1 2-5h2l1-5z" fill="#344C38"></path>
<path transform="translate(608,924)" d="m0 0h1v13l-1 3v12l1 2-3 5v10l-1 11-1 3 1 10-2 17h-1v-35l4-38z" fill="#334B3C"></path>
<path transform="translate(1082,846)" d="m0 0h2l7 33v7l-3 8-1-3 1-3v-8l-4-3-1-12z" fill="#364A31"></path>
<path transform="translate(992,857)" d="m0 0 2 3 6 24 3 11v6l-2-3-2-5-3-5v-4h-2v-8l-2-6-1-7z" fill="#35492F"></path>
<path transform="translate(1282,1882)" d="m0 0v3l-5 5-8 6-12 4h-17l-13-5-2-3 6 2 10 3h16l12-4h2v-2l5-4h2v-2h2v-2z" fill="#334A36"></path>
<path transform="translate(697,845)" d="m0 0 2 1-13 10-19 12-17 10-4 1 3-3 5-2v-2l5-2 1-2 8-4 9-6 5-4 5-1 2-4 7-3z" fill="#364E31"></path>
<path transform="translate(1076,802)" d="m0 0 2 2 5 36-1 4-2-7-2-5-2-7-2-8 1-11z" fill="#364C2B"></path>
<path transform="translate(1209,1903)" d="m0 0 3 1-9 6-7 2h-22l-4-2 3-2 10 1 9-1 10-2z" fill="#395344"></path>
<path transform="translate(682,1871)" d="m0 0 5 1 4 2 12 1 5-3h7 4l7-1-3 3-11 4h-15l-10-3-5-3z" fill="#354D3B"></path>
<path transform="translate(563,842)" d="m0 0 2 1v6l-3 7-2 5h-2v2h-3v-2l-2-1 4-10 1-4 1-2z" fill="#334A38"></path>
<path transform="translate(1456,1068)" d="m0 0 1 2 2 1 4 19 1 5v12l-2 1-2-6v-7l-2-4z" fill="#344C38"></path>
<path transform="translate(743,805)" d="m0 0 2 1-17 17-8 7-11 9v-3l4-5 5-3 3-5 4-5h3l1-2 8-5z" fill="#344D2C"></path>
<path transform="translate(1130,1859)" d="m0 0 2 3 5 15 7 11 9 10 9 6 7 3v2l-6-1-10-7-7-6-9-13-6-14z" fill="#344C37"></path>
<path transform="translate(626,1288)" d="m0 0 5 3 7 10 3 4v2h2l2 3v3h2l2 8-5-4-4-4v-4l-3-1v-3h-2l-4-8-5-7z" fill="#334A38"></path>
<path transform="translate(1718,946)" d="m0 0h2l2 9-1 13-2 4-3-1v-10l-1-6 1-1 1-7z" fill="#374A37"></path>


<path transform="translate(1338,1873)" d="m0 0v3l-8 6-11 5-4 1h-15l-11-4-1-2 5 1 7 2h15l12-4 10-7z" fill="#334A35"></path>
<path transform="translate(1353,1174)" d="m0 0h3l1 5v22l-2 7h-1l-1-17z" fill="#344A38"></path>
<path transform="translate(1282,906)" d="m0 0 5 2 7 8 7 7 6 3v3l5 1 3 2v3l5 2 4 3-1 2-17-12-12-11-12-12z" fill="#364C31"></path>
<path transform="translate(544,964)" d="m0 0h2l6 12 1 3h2l4 7 4 2 3 5 3 3h-3l-8-7-6-7-7-14z" fill="#354D30"></path>
<path transform="translate(1310,1116)" d="m0 0h1l-1 19-2 2v26l-2 1v-31l3-16z" fill="#354B2E"></path>
<path transform="translate(1691,1026)" d="m0 0 2 2-13 22-5 5-1-3 4-7h2v-2h2l1-4 5-10z" fill="#37503F"></path>
<path transform="translate(454,1098)" d="m0 0 4 2 3 1 4 8 7 6 6 9 4 5-4-2-13-14-9-11z" fill="#385140"></path>
<path transform="translate(1521,1207)" d="m0 0m-10 1h10l-1 3-8 3-15-1 2-2z" fill="#334A38"></path>
<path transform="translate(1702,1006)" d="m0 0m-1 1 2 1-2 6-5 9-4 1-1-2 1-3h2l1-8 3-3z" fill="#374F3F"></path>
<path transform="translate(608,924)" d="m0 0h1v13l-1 3v12l1 2-3 5-1 8-2 1 1-15z" fill="#334A3A"></path>
<path transform="translate(584,1729)" d="m0 0 3 1 1 8h3l6 7-1 2-12-7-1-1z" fill="#364834"></path>
<path transform="translate(1245,854)" d="m0 0 3 2 4 7 12 18 7 9-1 3-13-18-12-18z" fill="#374D2F"></path>
<path transform="translate(1500,1212)" d="m0 0 9 2-4 2-16 4h-2l2-4 6-2z" fill="#334A39"></path>
<path transform="translate(1695,923)" d="m0 0 5 1 10 7 7 8 3 7-4-1-2-4v-3h-2v-2h-2l-2-4-13-8z" fill="#344B36"></path>
<path transform="translate(634,885)" d="m0 0v3l-4 4-15 4-1-2 17-8z" fill="#334A37"></path>
<path transform="translate(1322,1076)" d="m0 0 1 2-2 6-3 16-1 3-2 1-2 4 1-9 7-22z" fill="#364C30"></path>
<path transform="translate(781,1421)" d="m0 0 3 1-10 8-8 5-2-1-3-2v-2l4-2 1 3 6-3 3-1 2-4z" fill="#334A37"></path>
<path transform="translate(857,853)" d="m0 0h2l1 4h2l4 8 10 16 3 4-1 3-15-23z" fill="#384824"></path>
<path transform="translate(1348 1e3)" d="m0 0h3l-2 10-2 7-4 4 1-8z" fill="#354E36"></path>

<path transform="translate(697,845)" d="m0 0 2 1-13 10-9 6-3-1 5-4 3-3 5-1 2-4 7-3z" fill="#355134"></path>
<path transform="translate(1476,1641)" d="m0 0 2 3 5 15-1 4-4-4-1-7-2-10z" fill="#344C38"></path>
<path transform="translate(1401,1390)" d="m0 0 2 3v8l-1 4-2 9h-1v-20z" fill="#476965"></path>
<path transform="translate(564,1017)" d="m0 0h2l-2 9-3 7-2 6-2-3 1-5 4-12z" fill="#344A38"></path>


<path transform="translate(614,1275)" d="m0 0 4 1 5 5 1 3-7-1-3-4z" fill="#344A38"></path>
<path transform="translate(1464,1111)" d="m0 0h2l2 15-1 2h-2l-2-12z" fill="#37492E"></path>
<path transform="translate(372,948)" d="m0 0 3 3 6 17v3h-2l-7-19z" fill="#354C37"></path>
<path transform="translate(664,1852)" d="m0 0 3 3 7 8 8 7-2 1-10-8-6-8z" fill="#334B33"></path>
<path transform="translate(1558,923)" d="m0 0h6v2l-12 3-5 1v-3z" fill="#364F3C"></path>
<path transform="translate(1282,906)" d="m0 0 5 2 7 8 9 9h-3l-18-18z" fill="#354A29"></path>

<path transform="translate(390,994)" d="m0 0 2 1 9 18-1 3-10-19z" fill="#385242"></path>
<path transform="translate(400,1016)" d="m0 0 3 1 8 14 1 3-3-1-9-16z" fill="#354C38"></path>

<path transform="translate(417,1042)" d="m0 0 2 3 2 4 2 1 3 7v2h-2l-8-14z" fill="#385240"></path>
<path transform="translate(1543,927)" d="m0 0 4 1-2 2-18 4 1-2z" fill="#334A34"></path>
<path transform="translate(1077,825)" d="m0 0 2 1v3h2l2 11-1 4-2-7-2-5-1-5z" fill="#354B2E"></path>
<path transform="translate(883,894)" d="m0 0 4 1 6 9 4 4-1 2-11-12z" fill="#364C2D"></path>
<path transform="translate(992,857)" d="m0 0 2 3 2 11h-2v-3h-2l-1-5z" fill="#344C30"></path>
<path transform="translate(1172,1908)" d="m0 0 10 1 1 2-9 1-4-2z" fill="#385141"></path>
<path transform="translate(1225,1892)" d="m0 0 6 2 10 3 1 3-8-2-8-4z" fill="#334B33"></path>
<path transform="translate(1037,896)" d="m0 0 18 6 1 2-7-1-12-6z" fill="#394E34"></path>
<path transform="translate(1674,1054)" d="m0 0 2 2-6 8-2-1 1-4z" fill="#354C3B"></path>
<path transform="translate(675,859)" d="m0 0m-1 1m-2 1 3 1-5 4-5 3-2-1z" fill="#364E2C"></path>
<path transform="translate(1352,990)" d="m0 0h1v10l-4 3 1-10z" fill="#354F39"></path>
<path transform="translate(697,845)" d="m0 0 2 1-12 9-1-2 3-4 7-3z" fill="#354B2E"></path>
<path transform="translate(545,961)" d="m0 0 2 1 1 6h2l3 7-2 1-6-12z" fill="#344A38"></path>
<path transform="translate(1024,887)" d="m0 0 5 1 5 5 1 2-5-2-6-4z" fill="#364B2F"></path>
<path transform="translate(1260,877)" d="m0 0 5 5 6 8-1 3-10-14z" fill="#375134"></path>
<path transform="translate(857,853)" d="m0 0h2l1 4h2l5 10h-3z" fill="#364D2F"></path>

<path transform="translate(1500,1212)" d="m0 0 9 2-4 2-5 1-2-4z" fill="#334E44"></path>
<path transform="translate(523,1103)" d="m0 0h2l-2 5-6 7-2-1z" fill="#374A2F"></path>

</svg>